<?xml version="1.0" encoding="UTF-8"?>
<svg xmlns="http://www.w3.org/2000/svg" xmlns:xlink="http://www.w3.org/1999/xlink" width="100pt" height="110pt" viewBox="0 0 100 110" version="1.1">
<g id="surface2">
<path style=" stroke:none;fill-rule:nonzero;fill:rgb(67.843137%,45.490196%,36.078431%);fill-opacity:1;" d="M 40 0 L 50 0 L 50 10 L 40 10 Z M 40 0 "/>
<path style=" stroke:none;fill-rule:nonzero;fill:rgb(67.843137%,45.490196%,36.078431%);fill-opacity:1;" d="M 50 0 L 60 0 L 60 10 L 50 10 Z M 50 0 "/>
<path style=" stroke:none;fill-rule:nonzero;fill:rgb(67.843137%,45.490196%,36.078431%);fill-opacity:1;" d="M 60 0 L 70 0 L 70 10 L 60 10 Z M 60 0 "/>
<path style=" stroke:none;fill-rule:nonzero;fill:rgb(83.137255%,61.176471%,29.803922%);fill-opacity:1;" d="M 40 10 L 50 10 L 50 20 L 40 20 Z M 40 10 "/>
<path style=" stroke:none;fill-rule:nonzero;fill:rgb(94.901961%,74.117647%,45.098039%);fill-opacity:1;" d="M 50 10 L 60 10 L 60 20 L 50 20 Z M 50 10 "/>
<path style=" stroke:none;fill-rule:nonzero;fill:rgb(85.098039%,61.568627%,29.019608%);fill-opacity:1;" d="M 60 10 L 70 10 L 70 20 L 60 20 Z M 60 10 "/>
<path style=" stroke:none;fill-rule:nonzero;fill:rgb(67.843137%,45.490196%,36.078431%);fill-opacity:1;" d="M 70 10 L 80 10 L 80 20 L 70 20 Z M 70 10 "/>
<path style=" stroke:none;fill-rule:nonzero;fill:rgb(67.843137%,45.490196%,36.078431%);fill-opacity:1;" d="M 80 10 L 90 10 L 90 20 L 80 20 Z M 80 10 "/>
<path style=" stroke:none;fill-rule:nonzero;fill:rgb(94.901961%,74.117647%,45.098039%);fill-opacity:1;" d="M 30 20 L 40 20 L 40 30 L 30 30 Z M 30 20 "/>
<path style=" stroke:none;fill-rule:nonzero;fill:rgb(86.27451%,54.901961%,32.941176%);fill-opacity:1;" d="M 40 20 L 50 20 L 50 30 L 40 30 Z M 40 20 "/>
<path style=" stroke:none;fill-rule:nonzero;fill:rgb(75.686275%,12.156863%,22.745098%);fill-opacity:1;" d="M 50 20 L 60 20 L 60 30 L 50 30 Z M 50 20 "/>
<path style=" stroke:none;fill-rule:nonzero;fill:rgb(61.176471%,6.27451%,10.980392%);fill-opacity:1;" d="M 60 20 L 70 20 L 70 30 L 60 30 Z M 60 20 "/>
<path style=" stroke:none;fill-rule:nonzero;fill:rgb(94.901961%,74.117647%,45.098039%);fill-opacity:1;" d="M 70 20 L 80 20 L 80 30 L 70 30 Z M 70 20 "/>
<path style=" stroke:none;fill-rule:nonzero;fill:rgb(83.137255%,61.176471%,29.803922%);fill-opacity:1;" d="M 80 20 L 90 20 L 90 30 L 80 30 Z M 80 20 "/>
<path style=" stroke:none;fill-rule:nonzero;fill:rgb(67.843137%,45.490196%,36.078431%);fill-opacity:1;" d="M 90 20 L 100 20 L 100 30 L 90 30 Z M 90 20 "/>
<path style=" stroke:none;fill-rule:nonzero;fill:rgb(75.686275%,12.156863%,22.745098%);fill-opacity:1;" d="M 20 30 L 30 30 L 30 40 L 20 40 Z M 20 30 "/>
<path style=" stroke:none;fill-rule:nonzero;fill:rgb(61.176471%,6.27451%,10.980392%);fill-opacity:1;" d="M 30 30 L 40 30 L 40 40 L 30 40 Z M 30 30 "/>
<path style=" stroke:none;fill-rule:nonzero;fill:rgb(86.27451%,54.901961%,32.941176%);fill-opacity:1;" d="M 40 30 L 50 30 L 50 40 L 40 40 Z M 40 30 "/>
<path style=" stroke:none;fill-rule:nonzero;fill:rgb(94.901961%,74.117647%,45.098039%);fill-opacity:1;" d="M 50 30 L 60 30 L 60 40 L 50 40 Z M 50 30 "/>
<path style=" stroke:none;fill-rule:nonzero;fill:rgb(75.686275%,12.156863%,22.745098%);fill-opacity:1;" d="M 60 30 L 70 30 L 70 40 L 60 40 Z M 60 30 "/>
<path style=" stroke:none;fill-rule:nonzero;fill:rgb(75.686275%,12.156863%,22.745098%);fill-opacity:1;" d="M 70 30 L 80 30 L 80 40 L 70 40 Z M 70 30 "/>
<path style=" stroke:none;fill-rule:nonzero;fill:rgb(83.137255%,61.176471%,29.803922%);fill-opacity:1;" d="M 80 30 L 90 30 L 90 40 L 80 40 Z M 80 30 "/>
<path style=" stroke:none;fill-rule:nonzero;fill:rgb(67.843137%,45.490196%,36.078431%);fill-opacity:1;" d="M 90 30 L 100 30 L 100 40 L 90 40 Z M 90 30 "/>
<path style=" stroke:none;fill-rule:nonzero;fill:rgb(86.27451%,54.901961%,32.941176%);fill-opacity:1;" d="M 10 40 L 20 40 L 20 50 L 10 50 Z M 10 40 "/>
<path style=" stroke:none;fill-rule:nonzero;fill:rgb(94.901961%,74.117647%,45.098039%);fill-opacity:1;" d="M 20 40 L 30 40 L 30 50 L 20 50 Z M 20 40 "/>
<path style=" stroke:none;fill-rule:nonzero;fill:rgb(75.686275%,12.156863%,22.745098%);fill-opacity:1;" d="M 30 40 L 40 40 L 40 50 L 30 50 Z M 30 40 "/>
<path style=" stroke:none;fill-rule:nonzero;fill:rgb(61.176471%,6.27451%,10.980392%);fill-opacity:1;" d="M 40 40 L 50 40 L 50 50 L 40 50 Z M 40 40 "/>
<path style=" stroke:none;fill-rule:nonzero;fill:rgb(75.686275%,12.156863%,22.745098%);fill-opacity:1;" d="M 50 40 L 60 40 L 60 50 L 50 50 Z M 50 40 "/>
<path style=" stroke:none;fill-rule:nonzero;fill:rgb(94.901961%,74.117647%,45.098039%);fill-opacity:1;" d="M 60 40 L 70 40 L 70 50 L 60 50 Z M 60 40 "/>
<path style=" stroke:none;fill-rule:nonzero;fill:rgb(73.72549%,42.352941%,7.843137%);fill-opacity:1;" d="M 70 40 L 80 40 L 80 50 L 70 50 Z M 70 40 "/>
<path style=" stroke:none;fill-rule:nonzero;fill:rgb(94.901961%,74.117647%,45.098039%);fill-opacity:1;" d="M 80 40 L 90 40 L 90 50 L 80 50 Z M 80 40 "/>
<path style=" stroke:none;fill-rule:nonzero;fill:rgb(67.843137%,45.490196%,36.078431%);fill-opacity:1;" d="M 90 40 L 100 40 L 100 50 L 90 50 Z M 90 40 "/>
<path style=" stroke:none;fill-rule:nonzero;fill:rgb(75.686275%,12.156863%,22.745098%);fill-opacity:1;" d="M 0 50 L 10 50 L 10 60 L 0 60 Z M 0 50 "/>
<path style=" stroke:none;fill-rule:nonzero;fill:rgb(61.568627%,6.27451%,10.980392%);fill-opacity:1;" d="M 10 50 L 20 50 L 20 60 L 10 60 Z M 10 50 "/>
<path style=" stroke:none;fill-rule:nonzero;fill:rgb(61.176471%,6.27451%,10.980392%);fill-opacity:1;" d="M 20 50 L 30 50 L 30 60 L 20 60 Z M 20 50 "/>
<path style=" stroke:none;fill-rule:nonzero;fill:rgb(94.901961%,74.117647%,45.098039%);fill-opacity:1;" d="M 30 50 L 40 50 L 40 60 L 30 60 Z M 30 50 "/>
<path style=" stroke:none;fill-rule:nonzero;fill:rgb(73.72549%,42.352941%,7.843137%);fill-opacity:1;" d="M 40 50 L 50 50 L 50 60 L 40 60 Z M 40 50 "/>
<path style=" stroke:none;fill-rule:nonzero;fill:rgb(73.72549%,42.352941%,7.843137%);fill-opacity:1;" d="M 50 50 L 60 50 L 60 60 L 50 60 Z M 50 50 "/>
<path style=" stroke:none;fill-rule:nonzero;fill:rgb(73.72549%,42.352941%,7.843137%);fill-opacity:1;" d="M 60 50 L 70 50 L 70 60 L 60 60 Z M 60 50 "/>
<path style=" stroke:none;fill-rule:nonzero;fill:rgb(83.137255%,60%,36.862745%);fill-opacity:1;" d="M 70 50 L 80 50 L 80 60 L 70 60 Z M 70 50 "/>
<path style=" stroke:none;fill-rule:nonzero;fill:rgb(94.901961%,74.117647%,45.098039%);fill-opacity:1;" d="M 80 50 L 90 50 L 90 60 L 80 60 Z M 80 50 "/>
<path style=" stroke:none;fill-rule:nonzero;fill:rgb(45.490196%,32.941176%,10.980392%);fill-opacity:1;" d="M 90 50 L 100 50 L 100 60 L 90 60 Z M 90 50 "/>
<path style=" stroke:none;fill-rule:nonzero;fill:rgb(61.568627%,6.27451%,10.980392%);fill-opacity:1;" d="M 0 60 L 10 60 L 10 70 L 0 70 Z M 0 60 "/>
<path style=" stroke:none;fill-rule:nonzero;fill:rgb(73.72549%,42.352941%,7.843137%);fill-opacity:1;" d="M 10 60 L 20 60 L 20 70 L 10 70 Z M 10 60 "/>
<path style=" stroke:none;fill-rule:nonzero;fill:rgb(73.72549%,42.352941%,7.843137%);fill-opacity:1;" d="M 20 60 L 30 60 L 30 70 L 20 70 Z M 20 60 "/>
<path style=" stroke:none;fill-rule:nonzero;fill:rgb(73.72549%,42.352941%,7.843137%);fill-opacity:1;" d="M 30 60 L 40 60 L 40 70 L 30 70 Z M 30 60 "/>
<path style=" stroke:none;fill-rule:nonzero;fill:rgb(76.862745%,48.627451%,9.019608%);fill-opacity:1;" d="M 40 60 L 50 60 L 50 70 L 40 70 Z M 40 60 "/>
<path style=" stroke:none;fill-rule:nonzero;fill:rgb(86.27451%,67.45098%,48.627451%);fill-opacity:1;" d="M 50 60 L 60 60 L 60 70 L 50 70 Z M 50 60 "/>
<path style=" stroke:none;fill-rule:nonzero;fill:rgb(86.27451%,67.45098%,48.627451%);fill-opacity:1;" d="M 60 60 L 70 60 L 70 70 L 60 70 Z M 60 60 "/>
<path style=" stroke:none;fill-rule:nonzero;fill:rgb(83.137255%,60%,36.862745%);fill-opacity:1;" d="M 70 60 L 80 60 L 80 70 L 70 70 Z M 70 60 "/>
<path style=" stroke:none;fill-rule:nonzero;fill:rgb(83.137255%,61.176471%,29.803922%);fill-opacity:1;" d="M 80 60 L 90 60 L 90 70 L 80 70 Z M 80 60 "/>
<path style=" stroke:none;fill-rule:nonzero;fill:rgb(45.490196%,32.941176%,10.980392%);fill-opacity:1;" d="M 90 60 L 100 60 L 100 70 L 90 70 Z M 90 60 "/>
<path style=" stroke:none;fill-rule:nonzero;fill:rgb(67.843137%,45.490196%,36.078431%);fill-opacity:1;" d="M 0 70 L 10 70 L 10 80 L 0 80 Z M 0 70 "/>
<path style=" stroke:none;fill-rule:nonzero;fill:rgb(73.72549%,42.352941%,7.843137%);fill-opacity:1;" d="M 10 70 L 20 70 L 20 80 L 10 80 Z M 10 70 "/>
<path style=" stroke:none;fill-rule:nonzero;fill:rgb(86.27451%,67.45098%,48.627451%);fill-opacity:1;" d="M 20 70 L 30 70 L 30 80 L 20 80 Z M 20 70 "/>
<path style=" stroke:none;fill-rule:nonzero;fill:rgb(86.27451%,67.45098%,48.627451%);fill-opacity:1;" d="M 30 70 L 40 70 L 40 80 L 30 80 Z M 30 70 "/>
<path style=" stroke:none;fill-rule:nonzero;fill:rgb(73.72549%,42.352941%,7.843137%);fill-opacity:1;" d="M 40 70 L 50 70 L 50 80 L 40 80 Z M 40 70 "/>
<path style=" stroke:none;fill-rule:nonzero;fill:rgb(76.862745%,48.627451%,9.019608%);fill-opacity:1;" d="M 50 70 L 60 70 L 60 80 L 50 80 Z M 50 70 "/>
<path style=" stroke:none;fill-rule:nonzero;fill:rgb(83.137255%,60%,36.862745%);fill-opacity:1;" d="M 60 70 L 70 70 L 70 80 L 60 80 Z M 60 70 "/>
<path style=" stroke:none;fill-rule:nonzero;fill:rgb(83.137255%,61.176471%,29.803922%);fill-opacity:1;" d="M 70 70 L 80 70 L 80 80 L 70 80 Z M 70 70 "/>
<path style=" stroke:none;fill-rule:nonzero;fill:rgb(45.490196%,32.941176%,10.980392%);fill-opacity:1;" d="M 80 70 L 90 70 L 90 80 L 80 80 Z M 80 70 "/>
<path style=" stroke:none;fill-rule:nonzero;fill:rgb(67.843137%,45.490196%,36.078431%);fill-opacity:1;" d="M 0 80 L 10 80 L 10 90 L 0 90 Z M 0 80 "/>
<path style=" stroke:none;fill-rule:nonzero;fill:rgb(83.137255%,60%,36.862745%);fill-opacity:1;" d="M 10 80 L 20 80 L 20 90 L 10 90 Z M 10 80 "/>
<path style=" stroke:none;fill-rule:nonzero;fill:rgb(83.137255%,60%,36.862745%);fill-opacity:1;" d="M 20 80 L 30 80 L 30 90 L 20 90 Z M 20 80 "/>
<path style=" stroke:none;fill-rule:nonzero;fill:rgb(83.137255%,60%,36.862745%);fill-opacity:1;" d="M 30 80 L 40 80 L 40 90 L 30 90 Z M 30 80 "/>
<path style=" stroke:none;fill-rule:nonzero;fill:rgb(94.901961%,74.117647%,45.098039%);fill-opacity:1;" d="M 40 80 L 50 80 L 50 90 L 40 90 Z M 40 80 "/>
<path style=" stroke:none;fill-rule:nonzero;fill:rgb(83.137255%,61.176471%,29.803922%);fill-opacity:1;" d="M 50 80 L 60 80 L 60 90 L 50 90 Z M 50 80 "/>
<path style=" stroke:none;fill-rule:nonzero;fill:rgb(45.490196%,32.941176%,10.980392%);fill-opacity:1;" d="M 60 80 L 70 80 L 70 90 L 60 90 Z M 60 80 "/>
<path style=" stroke:none;fill-rule:nonzero;fill:rgb(45.490196%,32.941176%,10.980392%);fill-opacity:1;" d="M 70 80 L 80 80 L 80 90 L 70 90 Z M 70 80 "/>
<path style=" stroke:none;fill-rule:nonzero;fill:rgb(67.843137%,45.490196%,36.078431%);fill-opacity:1;" d="M 0 90 L 10 90 L 10 100 L 0 100 Z M 0 90 "/>
<path style=" stroke:none;fill-rule:nonzero;fill:rgb(94.901961%,74.117647%,45.098039%);fill-opacity:1;" d="M 10 90 L 20 90 L 20 100 L 10 100 Z M 10 90 "/>
<path style=" stroke:none;fill-rule:nonzero;fill:rgb(94.901961%,74.117647%,45.098039%);fill-opacity:1;" d="M 20 90 L 30 90 L 30 100 L 20 100 Z M 20 90 "/>
<path style=" stroke:none;fill-rule:nonzero;fill:rgb(83.137255%,61.176471%,29.803922%);fill-opacity:1;" d="M 30 90 L 40 90 L 40 100 L 30 100 Z M 30 90 "/>
<path style=" stroke:none;fill-rule:nonzero;fill:rgb(45.490196%,32.941176%,10.980392%);fill-opacity:1;" d="M 40 90 L 50 90 L 50 100 L 40 100 Z M 40 90 "/>
<path style=" stroke:none;fill-rule:nonzero;fill:rgb(45.490196%,32.941176%,10.980392%);fill-opacity:1;" d="M 50 90 L 60 90 L 60 100 L 50 100 Z M 50 90 "/>
<path style=" stroke:none;fill-rule:nonzero;fill:rgb(45.490196%,32.941176%,10.980392%);fill-opacity:1;" d="M 0 100 L 10 100 L 10 110 L 0 110 Z M 0 100 "/>
<path style=" stroke:none;fill-rule:nonzero;fill:rgb(45.490196%,32.941176%,10.980392%);fill-opacity:1;" d="M 10 100 L 20 100 L 20 110 L 10 110 Z M 10 100 "/>
<path style=" stroke:none;fill-rule:nonzero;fill:rgb(45.490196%,32.941176%,10.980392%);fill-opacity:1;" d="M 20 100 L 30 100 L 30 110 L 20 110 Z M 20 100 "/>
<path style=" stroke:none;fill-rule:nonzero;fill:rgb(45.490196%,32.941176%,10.980392%);fill-opacity:1;" d="M 30 100 L 40 100 L 40 110 L 30 110 Z M 30 100 "/>
</g>
</svg>
